<svg width="200" height="200" viewBox="0 0 200 200" fill="none" xmlns="http://www.w3.org/2000/svg">
<rect width="200" height="200" rx="50" fill="url(#paint0_linear_322_69)"/>
<rect width="200" height="200" rx="50" fill="url(#paint1_linear_322_69)"/>
<path d="M15.06 121V82.36H24.72V97.36L38.04 82.36H49.08L35.28 98.14L49.92 121H39.6L29.28 104.32L24.72 109.3V121H15.06ZM52.7498 121L67.5098 82.36H77.9498L92.7098 121H82.6298L79.1498 112.24H66.2498L62.8298 121H52.7498ZM67.5698 105.1H77.8298L72.6698 91.66L67.5698 105.1ZM99.4022 121V82.36H108.942L119.442 103.78L129.882 82.36H139.362V121H129.702V98.8L122.082 114.4H116.742L109.062 98.8V121H99.4022Z" fill="white"/>
<mask id="mask0_322_69" style="mask-type:alpha" maskUnits="userSpaceOnUse" x="148" y="104" width="33" height="34">
<path d="M164.6 137.5C159.367 137.5 155.383 136.167 152.65 133.5C149.917 130.833 148.55 126.683 148.55 121.05C148.55 115.083 149.917 110.8 152.65 108.2C155.383 105.6 159.367 104.3 164.6 104.3C169.833 104.3 173.817 105.6 176.55 108.2C179.283 110.8 180.65 115.083 180.65 121.05C180.65 126.683 179.283 130.833 176.55 133.5C173.817 136.167 169.833 137.5 164.6 137.5ZM164.6 130.65C167.3 130.65 169.267 129.883 170.5 128.35C171.767 126.783 172.4 124.35 172.4 121.05C172.4 117.45 171.767 114.917 170.5 113.45C169.267 111.95 167.3 111.2 164.6 111.2C161.867 111.2 159.867 111.95 158.6 113.45C157.367 114.917 156.75 117.45 156.75 121.05C156.75 124.35 157.367 126.783 158.6 128.35C159.867 129.883 161.867 130.65 164.6 130.65Z" fill="white"/>
</mask>
<g mask="url(#mask0_322_69)">
<rect x="142" y="103" width="45" height="18" fill="white"/>
</g>
<mask id="mask1_322_69" style="mask-type:alpha" maskUnits="userSpaceOnUse" x="148" y="67" width="33" height="34">
<path d="M164.6 100.5C159.367 100.5 155.383 99.1667 152.65 96.5C149.917 93.8333 148.55 89.6833 148.55 84.05C148.55 78.0833 149.917 73.8 152.65 71.2C155.383 68.6 159.367 67.3 164.6 67.3C169.833 67.3 173.817 68.6 176.55 71.2C179.283 73.8 180.65 78.0833 180.65 84.05C180.65 89.6833 179.283 93.8333 176.55 96.5C173.817 99.1667 169.833 100.5 164.6 100.5ZM164.6 93.65C167.3 93.65 169.267 92.8833 170.5 91.35C171.767 89.7833 172.4 87.35 172.4 84.05C172.4 80.45 171.767 77.9167 170.5 76.45C169.267 74.95 167.3 74.2 164.6 74.2C161.867 74.2 159.867 74.95 158.6 76.45C157.367 77.9167 156.75 80.45 156.75 84.05C156.75 87.35 157.367 89.7833 158.6 91.35C159.867 92.8833 161.867 93.65 164.6 93.65Z" fill="white"/>
</mask>
<g mask="url(#mask1_322_69)">
<rect x="140" y="66" width="43" height="54" fill="white"/>
</g>
<defs>
<linearGradient id="paint0_linear_322_69" x1="0" y1="200" x2="200" y2="0" gradientUnits="userSpaceOnUse">
<stop stop-color="#1F3053"/>
<stop offset="1" stop-color="#456BB9"/>
</linearGradient>
<linearGradient id="paint1_linear_322_69" x1="200" y1="0" x2="0" y2="200" gradientUnits="userSpaceOnUse">
<stop stop-color="#1F3053"/>
<stop offset="1" stop-color="#456BB9"/>
</linearGradient>
</defs>
</svg>
